<svg xmlns="http://www.w3.org/2000/svg" viewBox="0 0 256 256"><defs><linearGradient id="a" x1="8" x2="248" y1="128" y2="128" gradientUnits="userSpaceOnUse"><stop offset="0" stop-color="#7241ff"/><stop offset="1" stop-color="#24a7ff"/></linearGradient></defs><path fill="url(#a)" d="M224 128a96 96 0 1 1-96-96a96 96 0 0 1 96 96Z"/><path fill="#fff" d="M128 20a108 108 0 1 1-108 108A108.12 108.12 0 0 1 128 20m0-20a128 128 0 1 0 128 128A128 128 0 0 0 128 0Z"/><path fill="#fff" d="M168.31 68.62a16.32 16.32 0 0 0-14.28-9.45h-1.55a2 2 0 0 0-1.81 1.16l-28.32 50.41l-10.7-20.21a2 2 0 0 0-1.82-1.16h-24.5a2 2 0 0 0-1.81 1.16L53.89 154.4a2 2 0 0 0 1.81 2.84h22.68a2 2 0 0 0 1.81-1.16l13-24.5l25.84 48.7a2 2 0 0 0 1.82 1.16h22.68a2 2 0 0 0 1.81-2.84l-25.2-47.5l25.19-44.85a2 2 0 0 0-1.1-3.2Zm-56.77 50.41L90.46 82.5h16.32Z"/></svg>
